# xmcd
#
# Track frame offsets:
#	150
#	17401
#	37691
#	57563
#	76777
#	93987
#	111999
#	133485
#	152731
#	175349
#	195984
#	213455
#	230118
#
# Disc length: 3633 seconds
#
# Revision: 1
# Processed by: cddbd v1.5.2PL0 Copyright (c) Steve Scherf et al.
# Submitted via: audiograbber 1.83.01
#
DISCID=a90e2f0d
DTITLE=The Rescue - Forever young
DYEAR=2012
DGENRE=Country
TTITLE0=Dancing with the wind
TTITLE1=Those who make the difference
TTITLE2=When our ship comes in
TTITLE3=Forever young
TTITLE4=Strait and fireball
TTITLE5=Bluee Eyed Baby
TTITLE6=Knee deep in the water
TTITLE7=Looking for you
TTITLE8=El Ciniza
TTITLE9=Texas Soap Bar
TTITLE10=As Big As The Sky
TTITLE11=A Thousand Miles
TTITLE12=Back To The Crossroads
EXTD=
EXTT0=
EXTT1=
EXTT2=
EXTT3=
EXTT4=
EXTT5=
EXTT6=
EXTT7=
EXTT8=
EXTT9=
EXTT10=
EXTT11=
EXTT12=
PLAYORDER=
